<svg width="94" height="21" viewBox="0 0 94 21" fill="none" xmlns="http://www.w3.org/2000/svg">
<path d="M0.08 10.268C0.08 8.192 0.428 6.572 1.124 5.408C1.832 4.232 3.044 3.644 4.76 3.644C6.476 3.644 7.682 4.232 8.378 5.408C9.086 6.572 9.44 8.192 9.44 10.268C9.44 12.368 9.086 14.012 8.378 15.2C7.682 16.376 6.476 16.964 4.76 16.964C3.044 16.964 1.832 16.376 1.124 15.2C0.428 14.012 0.08 12.368 0.08 10.268ZM7.424 10.268C7.424 9.296 7.358 8.474 7.226 7.802C7.106 7.13 6.854 6.584 6.47 6.164C6.086 5.732 5.516 5.516 4.76 5.516C4.004 5.516 3.434 5.732 3.05 6.164C2.666 6.584 2.408 7.13 2.276 7.802C2.156 8.474 2.096 9.296 2.096 10.268C2.096 11.276 2.156 12.122 2.276 12.806C2.396 13.49 2.648 14.042 3.032 14.462C3.428 14.882 4.004 15.092 4.76 15.092C5.516 15.092 6.086 14.882 6.47 14.462C6.866 14.042 7.124 13.49 7.244 12.806C7.364 12.122 7.424 11.276 7.424 10.268ZM12.7093 17.126C12.3373 17.126 12.0253 17 11.7733 16.748C11.5213 16.496 11.3953 16.184 11.3953 15.812C11.3953 15.44 11.5213 15.128 11.7733 14.876C12.0253 14.624 12.3373 14.498 12.7093 14.498C13.0693 14.498 13.3753 14.624 13.6273 14.876C13.8793 15.128 14.0053 15.44 14.0053 15.812C14.0053 16.184 13.8793 16.496 13.6273 16.748C13.3753 17 13.0693 17.126 12.7093 17.126ZM12.7093 9.566C12.3373 9.566 12.0253 9.44 11.7733 9.188C11.5213 8.936 11.3953 8.624 11.3953 8.252C11.3953 7.88 11.5213 7.568 11.7733 7.316C12.0253 7.064 12.3373 6.938 12.7093 6.938C13.0693 6.938 13.3753 7.064 13.6273 7.316C13.8793 7.568 14.0053 7.88 14.0053 8.252C14.0053 8.624 13.8793 8.936 13.6273 9.188C13.3753 9.44 13.0693 9.566 12.7093 9.566ZM16.0234 10.268C16.0234 8.192 16.3714 6.572 17.0674 5.408C17.7754 4.232 18.9874 3.644 20.7034 3.644C22.4194 3.644 23.6254 4.232 24.3214 5.408C25.0294 6.572 25.3834 8.192 25.3834 10.268C25.3834 12.368 25.0294 14.012 24.3214 15.2C23.6254 16.376 22.4194 16.964 20.7034 16.964C18.9874 16.964 17.7754 16.376 17.0674 15.2C16.3714 14.012 16.0234 12.368 16.0234 10.268ZM23.3674 10.268C23.3674 9.296 23.3014 8.474 23.1694 7.802C23.0494 7.13 22.7974 6.584 22.4134 6.164C22.0294 5.732 21.4594 5.516 20.7034 5.516C19.9474 5.516 19.3774 5.732 18.9934 6.164C18.6094 6.584 18.3514 7.13 18.2194 7.802C18.0994 8.474 18.0394 9.296 18.0394 10.268C18.0394 11.276 18.0994 12.122 18.2194 12.806C18.3394 13.49 18.5914 14.042 18.9754 14.462C19.3714 14.882 19.9474 15.092 20.7034 15.092C21.4594 15.092 22.0294 14.882 22.4134 14.462C22.8094 14.042 23.0674 13.49 23.1874 12.806C23.3074 12.122 23.3674 11.276 23.3674 10.268ZM27.5546 10.268C27.5546 8.192 27.9026 6.572 28.5986 5.408C29.3066 4.232 30.5186 3.644 32.2346 3.644C33.9506 3.644 35.1566 4.232 35.8526 5.408C36.5606 6.572 36.9146 8.192 36.9146 10.268C36.9146 12.368 36.5606 14.012 35.8526 15.2C35.1566 16.376 33.9506 16.964 32.2346 16.964C30.5186 16.964 29.3066 16.376 28.5986 15.2C27.9026 14.012 27.5546 12.368 27.5546 10.268ZM34.8986 10.268C34.8986 9.296 34.8326 8.474 34.7006 7.802C34.5806 7.13 34.3286 6.584 33.9446 6.164C33.5606 5.732 32.9906 5.516 32.2346 5.516C31.4786 5.516 30.9086 5.732 30.5246 6.164C30.1406 6.584 29.8826 7.13 29.7506 7.802C29.6306 8.474 29.5706 9.296 29.5706 10.268C29.5706 11.276 29.6306 12.122 29.7506 12.806C29.8706 13.49 30.1226 14.042 30.5066 14.462C30.9026 14.882 31.4786 15.092 32.2346 15.092C32.9906 15.092 33.5606 14.882 33.9446 14.462C34.3406 14.042 34.5986 13.49 34.7186 12.806C34.8386 12.122 34.8986 11.276 34.8986 10.268ZM50.6916 0.00799882L45.7956 20.15H43.7796L48.6576 0.00799882H50.6916ZM57.6475 7.118C57.7195 6.002 58.1455 5.132 58.9255 4.508C59.7175 3.884 60.7255 3.572 61.9495 3.572C62.7895 3.572 63.5155 3.722 64.1275 4.022C64.7395 4.322 65.2015 4.73 65.5135 5.246C65.8255 5.762 65.9815 6.344 65.9815 6.992C65.9815 7.736 65.7835 8.372 65.3875 8.9C64.9915 9.428 64.5175 9.782 63.9655 9.962V10.034C64.6735 10.25 65.2255 10.646 65.6215 11.222C66.0175 11.786 66.2155 12.512 66.2155 13.4C66.2155 14.108 66.0535 14.738 65.7295 15.29C65.4055 15.842 64.9255 16.28 64.2895 16.604C63.6535 16.916 62.8915 17.072 62.0035 17.072C60.7075 17.072 59.6395 16.742 58.7995 16.082C57.9715 15.41 57.5275 14.45 57.4675 13.202H59.4475C59.4955 13.838 59.7415 14.36 60.1855 14.768C60.6295 15.164 61.2295 15.362 61.9855 15.362C62.7175 15.362 63.2815 15.164 63.6775 14.768C64.0735 14.36 64.2715 13.838 64.2715 13.202C64.2715 12.362 64.0015 11.768 63.4615 11.42C62.9335 11.06 62.1175 10.88 61.0135 10.88H60.5455V9.188H61.0315C62.0035 9.176 62.7415 9.014 63.2455 8.702C63.7615 8.39 64.0195 7.898 64.0195 7.226C64.0195 6.65 63.8335 6.194 63.4615 5.858C63.0895 5.51 62.5615 5.336 61.8775 5.336C61.2055 5.336 60.6835 5.51 60.3115 5.858C59.9395 6.194 59.7175 6.614 59.6455 7.118H57.6475ZM69.469 17.126C69.097 17.126 68.785 17 68.533 16.748C68.281 16.496 68.155 16.184 68.155 15.812C68.155 15.44 68.281 15.128 68.533 14.876C68.785 14.624 69.097 14.498 69.469 14.498C69.829 14.498 70.135 14.624 70.387 14.876C70.639 15.128 70.765 15.44 70.765 15.812C70.765 16.184 70.639 16.496 70.387 16.748C70.135 17 69.829 17.126 69.469 17.126ZM69.469 9.566C69.097 9.566 68.785 9.44 68.533 9.188C68.281 8.936 68.155 8.624 68.155 8.252C68.155 7.88 68.281 7.568 68.533 7.316C68.785 7.064 69.097 6.938 69.469 6.938C69.829 6.938 70.135 7.064 70.387 7.316C70.639 7.568 70.765 7.88 70.765 8.252C70.765 8.624 70.639 8.936 70.387 9.188C70.135 9.44 69.829 9.566 69.469 9.566ZM72.5311 14.264V12.716L78.5791 4.04H81.0631V12.482H82.7371V14.264H81.0631V17H79.0471V14.264H72.5311ZM79.1371 6.128L74.8891 12.482H79.1371V6.128ZM92.8974 5.642H86.8674V9.224C87.1194 8.888 87.4914 8.606 87.9834 8.378C88.4874 8.15 89.0214 8.036 89.5854 8.036C90.5934 8.036 91.4094 8.252 92.0334 8.684C92.6694 9.116 93.1194 9.662 93.3834 10.322C93.6594 10.982 93.7974 11.678 93.7974 12.41C93.7974 13.298 93.6234 14.09 93.2754 14.786C92.9394 15.47 92.4294 16.01 91.7454 16.406C91.0734 16.802 90.2454 17 89.2614 17C87.9534 17 86.9034 16.676 86.1114 16.028C85.3194 15.38 84.8454 14.522 84.6894 13.454H86.6874C86.8194 14.018 87.1134 14.468 87.5694 14.804C88.0254 15.128 88.5954 15.29 89.2794 15.29C90.1314 15.29 90.7674 15.032 91.1874 14.516C91.6194 14 91.8354 13.316 91.8354 12.464C91.8354 11.6 91.6194 10.94 91.1874 10.484C90.7554 10.016 90.1194 9.782 89.2794 9.782C88.6914 9.782 88.1934 9.932 87.7854 10.232C87.3894 10.52 87.1014 10.916 86.9214 11.42H84.9774V3.842H92.8974V5.642Z" fill="white"/>
</svg>
