<svg width="63" height="63" viewBox="0 0 63 63" fill="none" xmlns="http://www.w3.org/2000/svg">
<path opacity="0.7" d="M52.9239 9.29814C58.5608 14.7357 61.9151 22.1161 62.3045 29.9385V33.4659C61.9141 41.2624 58.5784 48.6201 52.9716 54.0517C47.3648 59.4833 39.9051 62.5839 32.1 62.7267C24.295 62.8695 16.7268 60.0439 10.9251 54.821C5.12333 49.5981 1.52075 42.3674 0.845437 34.5903L0.691406 31.063C0.763377 25.0443 2.59693 19.1785 5.96559 14.1902C9.33424 9.20203 14.0904 5.30993 19.6465 2.99475C25.2026 0.67958 31.3152 0.0427704 37.2292 1.16299C43.1431 2.28322 48.5994 5.11139 52.9239 9.29814Z" fill="white"/>
</svg>
