<svg width="20" height="20" viewBox="0 0 20 20" fill="none" xmlns="http://www.w3.org/2000/svg">
<path d="M16.3774 16.533C17.2667 15.646 17.9719 14.5921 18.4525 13.4317C18.9332 12.2713 19.1798 11.0273 19.1781 9.77129C19.1798 8.51528 18.9332 7.27133 18.4525 6.11092C17.9719 4.95051 17.2667 3.89653 16.3774 3.00954L14.875 4.51191C15.5667 5.20183 16.1151 6.02165 16.4889 6.92423C16.8627 7.82681 17.0545 8.79437 17.0531 9.77129C17.0544 10.7482 16.8626 11.7157 16.4888 12.6183C16.115 13.5208 15.5666 14.3407 14.875 15.0307L16.3774 16.533ZM12.1486 0.315037C12.3286 0.401756 12.4805 0.537477 12.5869 0.706621C12.6933 0.875764 12.7498 1.07148 12.75 1.27129V18.2713C12.7497 18.4712 12.693 18.667 12.5864 18.8362C12.4799 19.0053 12.3277 19.141 12.1475 19.2275C11.9673 19.3141 11.7663 19.348 11.5676 19.3255C11.369 19.3029 11.1807 19.2248 11.0245 19.1L6.00313 15.0838H1.0625C0.780707 15.0838 0.510456 14.9718 0.311199 14.7726C0.111942 14.5733 0 14.3031 0 14.0213V5.52129C0 5.2395 0.111942 4.96924 0.311199 4.76999C0.510456 4.57073 0.780707 4.45879 1.0625 4.45879H6.00313L11.0245 0.442537C11.1808 0.317561 11.3693 0.239288 11.5682 0.216731C11.7671 0.194173 11.9683 0.228251 12.1486 0.315037Z" fill="#F8F8F8"/>
</svg>
